<mxfile host="drawio-plugin" modified="2022-11-07T23:29:53.622Z" agent="5.0 (Windows NT 6.2; Win64; x64) AppleWebKit/537.36 (KHTML, like Gecko) Chrome/98.0.4758.102 Safari/537.36" etag="DUKuLsQP7y8KPY4qWejt" version="15.5.4" type="embed"><diagram id="E5MD6IGXgiVyi1Yvd_QD" name="Page-1"><mxGraphModel dx="973" dy="704" grid="1" gridSize="10" guides="1" tooltips="1" connect="1" arrows="1" fold="1" page="1" pageScale="1" pageWidth="850" pageHeight="1100" math="0" shadow="0"><root><mxCell id="0"/><mxCell id="1" parent="0"/><mxCell id="2" value="BoardController implements ScrabbleListener" style="swimlane;fontStyle=1;align=center;verticalAlign=top;childLayout=stackLayout;horizontal=1;startSize=26;horizontalStack=0;resizeParent=1;resizeParentMax=0;resizeLast=0;collapsible=1;marginBottom=0;" parent="1" vertex="1"><mxGeometry x="223" y="320" width="290" height="110" as="geometry"/></mxCell><mxCell id="3" value="-model : ScrabbleModel&#10;-view : BoardView" style="text;strokeColor=none;fillColor=none;align=left;verticalAlign=top;spacingLeft=4;spacingRight=4;overflow=hidden;rotatable=0;points=[[0,0.5],[1,0.5]];portConstraint=eastwest;" parent="2" vertex="1"><mxGeometry y="26" width="290" height="34" as="geometry"/></mxCell><mxCell id="4" value="" style="line;strokeWidth=1;fillColor=none;align=left;verticalAlign=middle;spacingTop=-1;spacingLeft=3;spacingRight=3;rotatable=0;labelPosition=right;points=[];portConstraint=eastwest;" parent="2" vertex="1"><mxGeometry y="60" width="290" height="8" as="geometry"/></mxCell><mxCell id="5" value="+BoardController(ScrabbleModel, BoardView) : void&#10;+actionPerformed(ActionEvent) : void" style="text;strokeColor=none;fillColor=none;align=left;verticalAlign=top;spacingLeft=4;spacingRight=4;overflow=hidden;rotatable=0;points=[[0,0.5],[1,0.5]];portConstraint=eastwest;" parent="2" vertex="1"><mxGeometry y="68" width="290" height="42" as="geometry"/></mxCell><mxCell id="6" value="BoardView extends JPanel" style="swimlane;fontStyle=1;align=center;verticalAlign=top;childLayout=stackLayout;horizontal=1;startSize=26;horizontalStack=0;resizeParent=1;resizeParentMax=0;resizeLast=0;collapsible=1;marginBottom=0;" parent="1" vertex="1"><mxGeometry x="83" y="500" width="240" height="170" as="geometry"/></mxCell><mxCell id="7" value="-model : ScrabbleModel&#10;-boardTiles : ArrayList&lt;JButton&gt;&#10;-leftToRightSelector : JButton&#10;-topToBottomSelector : JButton" style="text;strokeColor=none;fillColor=none;align=left;verticalAlign=top;spacingLeft=4;spacingRight=4;overflow=hidden;rotatable=0;points=[[0,0.5],[1,0.5]];portConstraint=eastwest;" parent="6" vertex="1"><mxGeometry y="26" width="240" height="74" as="geometry"/></mxCell><mxCell id="8" value="" style="line;strokeWidth=1;fillColor=none;align=left;verticalAlign=middle;spacingTop=-1;spacingLeft=3;spacingRight=3;rotatable=0;labelPosition=right;points=[];portConstraint=eastwest;" parent="6" vertex="1"><mxGeometry y="100" width="240" height="8" as="geometry"/></mxCell><mxCell id="9" value="+BoardView(ScrabbleModel)&#10;+update(ScrabbleEvent) : void&#10;+registerListener(BoardController) : void" style="text;strokeColor=none;fillColor=none;align=left;verticalAlign=top;spacingLeft=4;spacingRight=4;overflow=hidden;rotatable=0;points=[[0,0.5],[1,0.5]];portConstraint=eastwest;" parent="6" vertex="1"><mxGeometry y="108" width="240" height="62" as="geometry"/></mxCell><mxCell id="14" value="" style="endArrow=open;endFill=1;endSize=12;html=1;rounded=0;entryX=0.5;entryY=0;entryDx=0;entryDy=0;" parent="1" target="6" edge="1"><mxGeometry width="160" relative="1" as="geometry"><mxPoint x="223" y="359" as="sourcePoint"/><mxPoint x="503" y="540" as="targetPoint"/><Array as="points"><mxPoint x="203" y="359"/></Array></mxGeometry></mxCell><mxCell id="18" value="" style="endArrow=open;endFill=1;endSize=12;html=1;rounded=0;exitX=1;exitY=0.392;exitDx=0;exitDy=0;entryX=0.5;entryY=0;entryDx=0;entryDy=0;exitPerimeter=0;" parent="1" source="3" edge="1"><mxGeometry width="160" relative="1" as="geometry"><mxPoint x="343" y="540" as="sourcePoint"/><mxPoint x="533" y="500" as="targetPoint"/><Array as="points"><mxPoint x="533" y="359"/></Array></mxGeometry></mxCell><mxCell id="19" value="ScrabbleModel" style="swimlane;fontStyle=1;align=center;verticalAlign=top;childLayout=stackLayout;horizontal=1;startSize=26;horizontalStack=0;resizeParent=1;resizeParentMax=0;resizeLast=0;collapsible=1;marginBottom=0;" parent="1" vertex="1"><mxGeometry x="425" y="500" width="315" height="353" as="geometry"/></mxCell><mxCell id="20" value="" style="line;strokeWidth=1;fillColor=none;align=left;verticalAlign=middle;spacingTop=-1;spacingLeft=3;spacingRight=3;rotatable=0;labelPosition=right;points=[];portConstraint=eastwest;" parent="19" vertex="1"><mxGeometry y="26" width="315" height="2" as="geometry"/></mxCell><mxCell id="21" value="- board: Board&#10;- inputHandler: TextController&#10;- players(): List&lt;Player&gt;&#10;- numPlayers: int&#10;- turn: int&#10;- drawPile: DrawPile&#10;- gameFinished: boolean" style="text;strokeColor=none;fillColor=none;align=left;verticalAlign=top;spacingLeft=4;spacingRight=4;overflow=hidden;rotatable=0;points=[[0,0.5],[1,0.5]];portConstraint=eastwest;" parent="19" vertex="1"><mxGeometry y="28" width="315" height="122" as="geometry"/></mxCell><mxCell id="22" value="" style="line;strokeWidth=1;fillColor=none;align=left;verticalAlign=middle;spacingTop=-1;spacingLeft=3;spacingRight=3;rotatable=0;labelPosition=right;points=[];portConstraint=eastwest;" parent="19" vertex="1"><mxGeometry y="150" width="315" height="8" as="geometry"/></mxCell><mxCell id="23" value="&lt;span&gt;- incrementTurn(int turn): int&lt;/span&gt;&lt;br style=&quot;padding: 0px ; margin: 0px&quot;&gt;&lt;span&gt;- printBoard(): None&lt;/span&gt;&lt;br style=&quot;padding: 0px ; margin: 0px&quot;&gt;&lt;span&gt;- initializePlayers(): None&lt;/span&gt;&lt;br style=&quot;padding: 0px ; margin: 0px&quot;&gt;&lt;span&gt;+ getDrawPile(): DrawPile&lt;/span&gt;&lt;br style=&quot;padding: 0px ; margin: 0px&quot;&gt;&lt;span&gt;- getXCoord(String coords): int&lt;/span&gt;&lt;br style=&quot;padding: 0px ; margin: 0px&quot;&gt;&lt;span&gt;- getYCoord(String coords): int&lt;/span&gt;&lt;br style=&quot;padding: 0px ; margin: 0px&quot;&gt;&lt;span&gt;- getDirection(String coords): boolean&lt;/span&gt;&lt;br style=&quot;padding: 0px ; margin: 0px&quot;&gt;&lt;span&gt;- validateCoords(&lt;/span&gt;String&amp;nbsp;&lt;span&gt;coords,&amp;nbsp;&lt;/span&gt;String&amp;nbsp;&lt;span&gt;word):&amp;nbsp; boolean&lt;br&gt;- getAction(): boolean&lt;br&gt;- handleDiscard(Player currentPlayer): None&lt;br&gt;- handlePlace(Player currentPlayer): None&lt;br&gt;- nextTurn(): none&lt;br&gt;- startGame(): None&lt;br&gt;&lt;/span&gt;" style="text;html=1;strokeColor=none;fillColor=none;align=left;verticalAlign=middle;whiteSpace=wrap;rounded=0;" parent="19" vertex="1"><mxGeometry y="158" width="315" height="195" as="geometry"/></mxCell><mxCell id="24" value="" style="endArrow=open;endFill=1;endSize=12;html=1;rounded=0;exitX=1;exitY=0.824;exitDx=0;exitDy=0;exitPerimeter=0;entryX=0;entryY=0.5;entryDx=0;entryDy=0;" edge="1" parent="1" source="7" target="21"><mxGeometry width="160" relative="1" as="geometry"><mxPoint x="363" y="570" as="sourcePoint"/><mxPoint x="523" y="570" as="targetPoint"/></mxGeometry></mxCell><mxCell id="25" value="" style="endArrow=block;dashed=1;endFill=0;endSize=12;html=1;rounded=0;exitX=0.5;exitY=0;exitDx=0;exitDy=0;" edge="1" parent="1" source="2"><mxGeometry width="160" relative="1" as="geometry"><mxPoint x="360" y="540" as="sourcePoint"/><mxPoint x="368" y="200" as="targetPoint"/></mxGeometry></mxCell></root></mxGraphModel></diagram></mxfile>